<?xml version="1.0" encoding="UTF-8" standalone="no"?>
<!-- Created with Inkscape (http://www.inkscape.org/) -->

<svg
   xmlns:dc="http://purl.org/dc/elements/1.1/"
   xmlns:cc="http://creativecommons.org/ns#"
   xmlns:rdf="http://www.w3.org/1999/02/22-rdf-syntax-ns#"
   xmlns:svg="http://www.w3.org/2000/svg"
   xmlns="http://www.w3.org/2000/svg"
   xmlns:sodipodi="http://sodipodi.sourceforge.net/DTD/sodipodi-0.dtd"
   xmlns:inkscape="http://www.inkscape.org/namespaces/inkscape"
   width="64px"
   height="64px"
   id="svg2985"
   version="1.1"
   inkscape:version="0.48.1 r9760"
   sodipodi:docname="tuxlogo.svg">
  <defs
     id="defs2987" />
  <sodipodi:namedview
     id="base"
     pagecolor="#ffffff"
     bordercolor="#666666"
     borderopacity="1.0"
     inkscape:pageopacity="0.0"
     inkscape:pageshadow="2"
     inkscape:zoom="11"
     inkscape:cx="13.682008"
     inkscape:cy="30.859881"
     inkscape:current-layer="layer3"
     showgrid="true"
     inkscape:document-units="px"
     inkscape:grid-bbox="true"
     inkscape:window-width="1272"
     inkscape:window-height="994"
     inkscape:window-x="4"
     inkscape:window-y="26"
     inkscape:window-maximized="0" />
  <metadata
     id="metadata2990">
    <rdf:RDF>
      <cc:Work
         rdf:about="">
        <dc:format>image/svg+xml</dc:format>
        <dc:type
           rdf:resource="http://purl.org/dc/dcmitype/StillImage" />
        <dc:title />
      </cc:Work>
    </rdf:RDF>
  </metadata>
  <g
     id="layer1"
     inkscape:label="Layer 1"
     inkscape:groupmode="layer"
     style="display:none">
    <path
       sodipodi:type="arc"
       style="fill:#00e0f5;fill-opacity:0;stroke:#000000;stroke-width:0.1;stroke-miterlimit:4;stroke-opacity:1;stroke-dasharray:none"
       id="path2993"
       sodipodi:cx="31.681818"
       sodipodi:cy="31.727272"
       sodipodi:rx="11.672681"
       sodipodi:ry="31.603142"
       d="m 43.354499,31.727272 a 11.672681,31.603142 0 1 1 -23.345362,0 11.672681,31.603142 0 1 1 23.345362,0 z"
       transform="matrix(1.6568243,0,0,0.84377929,-19.091052,4.5515478)" />
  </g>
  <g
     inkscape:groupmode="layer"
     id="layer2"
     inkscape:label="thick lines"
     style="display:inline">
    <path
       style="fill:none;stroke:#000000;stroke-width:1px;stroke-linecap:butt;stroke-linejoin:round;stroke-opacity:1"
       d="M 22.113158,11.095556 C 28.832174,4.5924833 38.760561,4.4372545 46.379777,10.613438"
       id="path3777"
       inkscape:connector-curvature="0"
       sodipodi:nodetypes="cc" />
    <path
       style="fill:#000000;fill-opacity:1;stroke:#000000;stroke-width:0;stroke-linecap:butt;stroke-linejoin:miter;stroke-miterlimit:4;stroke-opacity:1;stroke-dasharray:none"
       d="m 17.11094,31.620872 c -0.15664,6.673829 -3.680631,15.206477 0.887357,21.446383 l 0.09642,-0.739248 c -4.811328,-7.82174 1.227422,-14.71655 1.265162,-17.439759 z"
       id="path3779"
       inkscape:connector-curvature="0"
       sodipodi:nodetypes="ccccc" />
    <path
       style="fill:#000000;stroke:#000000;stroke-width:0.29999999999999999;stroke-linecap:butt;stroke-linejoin:miter;stroke-miterlimit:4;stroke-opacity:1;stroke-dasharray:none;fill-opacity:1"
       d="M 44.578542,55.701755 C 56.225628,19.727483 11.147483,21.392213 22.512367,54.597924 c 5.445822,5.195409 16.506445,4.995904 22.066175,1.103831 z"
       id="path3932"
       inkscape:connector-curvature="0"
       sodipodi:nodetypes="ccc" />
    <path
       style="fill:#000000;fill-opacity:1;stroke:#000000;stroke-width:0;stroke-linecap:butt;stroke-linejoin:miter;stroke-miterlimit:4;stroke-opacity:1;stroke-dasharray:none;display:inline"
       d="m 49.802527,31.845267 c 0.15664,6.673829 3.680631,15.206477 -0.887357,21.446383 l -0.09642,-0.739248 c 4.811328,-7.82174 -1.227422,-14.71655 -1.265162,-17.439759 z"
       id="path3779-9"
       inkscape:connector-curvature="0"
       sodipodi:nodetypes="ccccc" />
  </g>
  <g
     inkscape:groupmode="layer"
     id="layer3"
     inkscape:label="face">
    <path
       style="fill:#ffffff;stroke:#000000;stroke-width:0.69999999000000002;stroke-linecap:butt;stroke-linejoin:miter;stroke-miterlimit:4;stroke-opacity:1;stroke-dasharray:none;fill-opacity:1"
       d="m 21.984593,19.387991 7.906739,0 c -0.225503,-2.098822 -1.846218,-6.124141 -4.001581,-6.187185 -1.975844,0.05295 -3.486495,4.116096 -3.905158,6.187185 z"
       id="path3784"
       inkscape:connector-curvature="0"
       sodipodi:nodetypes="cccc" />
    <path
       style="fill:#fbe100;stroke:#000000;stroke-width:0.69999999999999996;stroke-linecap:butt;stroke-linejoin:round;stroke-opacity:1;stroke-miterlimit:4;stroke-dasharray:none;fill-opacity:1"
       d="m 29.99717,22.378738 c 0.605168,0.0078 7.929466,0.03053 7.929466,0.03053 -0.05301,2.368945 -2.390234,4.351476 -3.951085,4.885465 -1.459212,-0.490484 -3.969013,-2.779458 -3.978381,-4.915995 z"
       id="path3884"
       inkscape:connector-curvature="0"
       sodipodi:nodetypes="cccc" />
    <path
       style="fill:#ffffff;stroke:#000000;stroke-width:0.69999999000000002;stroke-linecap:butt;stroke-linejoin:miter;stroke-miterlimit:4;stroke-opacity:1;stroke-dasharray:none;fill-opacity:1"
       d="m 38.016275,19.338204 7.906739,0 c -0.225503,-2.098822 -1.846218,-6.124141 -4.001581,-6.187185 -1.975844,0.05295 -3.486495,4.116096 -3.905158,6.187185 z"
       id="path3784-0"
       inkscape:connector-curvature="0"
       sodipodi:nodetypes="cccc" />
  </g>
  <g
     inkscape:groupmode="layer"
     id="layer4"
     inkscape:label="feet"
     style="display:inline">
    <path
       style="fill:#ffe400;fill-opacity:1;stroke:#000000;stroke-width:0.60000001999999997;stroke-linecap:butt;stroke-linejoin:miter;stroke-miterlimit:4;stroke-opacity:1;stroke-dasharray:none"
       d="m 29.805022,48.527519 c 2.759361,11.842376 -6.46901,12.688943 -11.331552,4.777148 -1.825473,-2.280651 1.322673,-4.4773 3.09883,-2.833948 0.8565,-2.374098 1.99948,-2.756168 4.370129,-1.802851 -0.550432,-1.716771 3.349725,-3.521735 3.862593,-0.140349 z"
       id="path3912"
       inkscape:connector-curvature="0"
       sodipodi:nodetypes="ccccc" />
    <path
       style="fill:#ffe400;fill-opacity:1;stroke:#000000;stroke-width:0.60000001999999997;stroke-linecap:butt;stroke-linejoin:miter;stroke-miterlimit:4;stroke-opacity:1;stroke-dasharray:none;display:inline"
       d="m 37.272352,48.554066 c -2.759361,11.842376 6.469009,12.688943 11.331551,4.777148 1.825473,-2.280651 -1.322673,-4.4773 -3.09883,-2.833948 -0.8565,-2.374098 -1.99948,-2.756168 -4.370129,-1.802851 0.203432,-0.634494 -0.201058,-1.281034 -0.81779,-1.673347 -1.05198,-0.66918 -2.721483,-0.598676 -3.044802,1.532998 z"
       id="path3912-8"
       inkscape:connector-curvature="0"
       sodipodi:nodetypes="ccccsc" />
  </g>
</svg>
