<?xml version="1.0" encoding="UTF-8" standalone="no"?>
<!-- Created with Inkscape (http://www.inkscape.org/) -->

<svg
   xmlns:dc="http://purl.org/dc/elements/1.1/"
   xmlns:cc="http://creativecommons.org/ns#"
   xmlns:rdf="http://www.w3.org/1999/02/22-rdf-syntax-ns#"
   xmlns:svg="http://www.w3.org/2000/svg"
   xmlns="http://www.w3.org/2000/svg"
   xmlns:sodipodi="http://sodipodi.sourceforge.net/DTD/sodipodi-0.dtd"
   xmlns:inkscape="http://www.inkscape.org/namespaces/inkscape"
   width="64px"
   height="64px"
   id="svg2985"
   version="1.1"
   inkscape:version="0.48.2 r9819"
   sodipodi:docname="tuxlogo.svg">
  <defs
     id="defs2987" />
  <sodipodi:namedview
     id="base"
     pagecolor="#ffffff"
     bordercolor="#666666"
     borderopacity="1.0"
     inkscape:pageopacity="0.0"
     inkscape:pageshadow="2"
     inkscape:zoom="11.313708"
     inkscape:cx="26.226334"
     inkscape:cy="33.422001"
     inkscape:current-layer="layer2"
     showgrid="true"
     inkscape:document-units="px"
     inkscape:grid-bbox="true"
     inkscape:window-width="1366"
     inkscape:window-height="768"
     inkscape:window-x="0"
     inkscape:window-y="0"
     inkscape:window-maximized="1"
     inkscape:snap-to-guides="true"
     inkscape:snap-grids="true" />
  <metadata
     id="metadata2990">
    <rdf:RDF>
      <cc:Work
         rdf:about="">
        <dc:format>image/svg+xml</dc:format>
        <dc:type
           rdf:resource="http://purl.org/dc/dcmitype/StillImage" />
        <dc:title></dc:title>
      </cc:Work>
    </rdf:RDF>
  </metadata>
  <g
     id="layer1"
     inkscape:label="Layer 1"
     inkscape:groupmode="layer"
     style="display:none">
    <path
       sodipodi:type="arc"
       style="fill:#00e0f5;fill-opacity:0;stroke:#000000;stroke-width:0.1;stroke-miterlimit:4;stroke-opacity:1;stroke-dasharray:none"
       id="path2993"
       sodipodi:cx="31.681818"
       sodipodi:cy="31.727272"
       sodipodi:rx="11.672681"
       sodipodi:ry="31.603142"
       d="m 43.354499,31.727272 a 11.672681,31.603142 0 1 1 -23.345362,0 11.672681,31.603142 0 1 1 23.345362,0 z"
       transform="matrix(1.6568243,0,0,0.84377929,-19.091052,4.5515478)" />
  </g>
  <g
     inkscape:groupmode="layer"
     id="layer2"
     inkscape:label="thick lines"
     style="display:inline">
    <path
       style="font-size:medium;font-style:normal;font-variant:normal;font-weight:normal;font-stretch:normal;text-indent:0;text-align:start;text-decoration:none;line-height:normal;letter-spacing:normal;word-spacing:normal;text-transform:none;direction:ltr;block-progression:tb;writing-mode:lr-tb;text-anchor:start;baseline-shift:baseline;color:#000000;fill:#000000;fill-opacity:1;stroke:none;stroke-width:1px;marker:none;visibility:visible;display:inline;overflow:visible;enable-background:accumulate;font-family:Sans;-inkscape-font-specification:Sans"
       d="M 34.25,4.5625 C 29.85276,4.6454475 22.775072,7.9389711 21.75,10.75 l -1.989658,5.456187 c 5.606551,-4.813183 1.555647,-9.7601596 14.552108,-9.7601596 12.931978,0 9.228474,5.1519896 13.929429,9.8395066 0,0 -0.474931,-2.090895 -1.296796,-5.419036 C 44.373218,7.1633571 38.64724,4.4795525 34.25,4.5625 z"
       id="path3777"
       inkscape:connector-curvature="0"
       sodipodi:nodetypes="sscsccs" />
    <path
       style="fill:#000000;fill-opacity:1;stroke:#000000;stroke-width:0;stroke-linecap:butt;stroke-linejoin:miter;stroke-miterlimit:4;stroke-opacity:1;stroke-dasharray:none"
       d="m 17.11094,31.620872 c -0.15664,6.673829 -3.680631,15.206477 0.887357,21.446383 l 0.09642,-0.739248 c -4.811328,-7.82174 1.227422,-14.71655 1.265162,-17.439759 z"
       id="path3779"
       inkscape:connector-curvature="0"
       sodipodi:nodetypes="ccccc" />
    <path
       style="fill:#000000;stroke:#000000;stroke-width:0.29999999999999999;stroke-linecap:butt;stroke-linejoin:miter;stroke-miterlimit:4;stroke-opacity:1;stroke-dasharray:none;fill-opacity:1"
       d="M 44.578542,55.701755 C 56.225628,19.727483 11.147483,21.392213 22.512367,54.597924 c 5.445822,5.195409 16.506445,4.995904 22.066175,1.103831 z"
       id="path3932"
       inkscape:connector-curvature="0"
       sodipodi:nodetypes="ccc" />
    <path
       style="fill:#000000;fill-opacity:1;stroke:#000000;stroke-width:0;stroke-linecap:butt;stroke-linejoin:miter;stroke-miterlimit:4;stroke-opacity:1;stroke-dasharray:none;display:inline"
       d="m 49.802527,31.845267 c 0.15664,6.673829 3.680631,15.206477 -0.887357,21.446383 l -0.09642,-0.739248 c 4.811328,-7.82174 -1.227422,-14.71655 -1.265162,-17.439759 z"
       id="path3779-9"
       inkscape:connector-curvature="0"
       sodipodi:nodetypes="ccccc" />
  </g>
  <g
     inkscape:groupmode="layer"
     id="layer3"
     inkscape:label="face">
    <path
       style="fill:#fbe100;stroke:#000000;stroke-width:0.69999999999999996;stroke-linecap:butt;stroke-linejoin:round;stroke-opacity:1;stroke-miterlimit:4;stroke-dasharray:none;fill-opacity:1"
       d="m 29.99717,22.378738 c 0.605168,0.0078 7.929466,0.03053 7.929466,0.03053 -0.05301,2.368945 -2.390234,4.351476 -3.951085,4.885465 -1.459212,-0.490484 -3.969013,-2.779458 -3.978381,-4.915995 z"
       id="path3884"
       inkscape:connector-curvature="0"
       sodipodi:nodetypes="cccc" />
    <path
       style="fill:#ffffff;fill-opacity:1;stroke:#000000;stroke-width:0.69999999;stroke-linecap:butt;stroke-linejoin:miter;stroke-miterlimit:4;stroke-opacity:1;stroke-dasharray:none"
       d="m 38.016275,19.338204 c 0,0 1.685264,-0.574525 4.100772,-0.574525 2.415508,0 3.805967,0.574525 3.805967,0.574525 -0.225503,-2.098822 -1.846218,-6.124141 -4.001581,-6.187185 -1.975844,0.05295 -3.486495,4.116096 -3.905158,6.187185 z"
       id="path3784-0"
       inkscape:connector-curvature="0"
       sodipodi:nodetypes="czccc" />
    <path
       style="fill:#ffffff;fill-opacity:1;stroke:#000000;stroke-width:0.69999999;stroke-linecap:butt;stroke-linejoin:miter;stroke-miterlimit:4;stroke-opacity:1;stroke-dasharray:none"
       d="m 21.856028,19.496468 c 0,0 1.685264,-0.574525 4.100772,-0.574525 2.415508,0 3.805967,0.574525 3.805967,0.574525 -0.225503,-2.098822 -1.846218,-6.124141 -4.001581,-6.187185 -1.975844,0.05295 -3.486495,4.116096 -3.905158,6.187185 z"
       id="path3784-0-2"
       inkscape:connector-curvature="0"
       sodipodi:nodetypes="czccc" />
    <path
       style="fill:#000000;stroke:#000000;stroke-width:1;stroke-linecap:round;stroke-linejoin:round;stroke-miterlimit:4;stroke-opacity:1;stroke-dasharray:none;fill-opacity:1"
       d="m 25.875,16.140625 c 3,0 3.125,2.984375 3.125,2.984375 0,0 -4.180362,-1.066268 -6.796875,0.0625 0.35225,-1.058732 0.849683,-3.046875 3.671875,-3.046875 z"
       id="path3839"
       inkscape:connector-curvature="0"
       sodipodi:nodetypes="cccc" />
    <path
       style="fill:#000000;fill-opacity:1;stroke:#000000;stroke-width:1;stroke-linecap:round;stroke-linejoin:round;stroke-miterlimit:4;stroke-opacity:1;stroke-dasharray:none"
       d="m 42.179688,15.664062 c 3,0 3.125,2.984375 3.125,2.984375 0,0 -4.180362,-1.066268 -6.796875,0.0625 0.35225,-1.058732 0.849683,-3.046875 3.671875,-3.046875 z"
       id="path3839-0"
       inkscape:connector-curvature="0"
       sodipodi:nodetypes="cccc" />
  </g>
  <g
     inkscape:groupmode="layer"
     id="layer4"
     inkscape:label="feet"
     style="display:inline">
    <path
       style="fill:#ffe400;fill-opacity:1;stroke:#000000;stroke-width:0.60000001999999997;stroke-linecap:butt;stroke-linejoin:miter;stroke-miterlimit:4;stroke-opacity:1;stroke-dasharray:none"
       d="m 29.805022,48.527519 c 2.759361,11.842376 -6.46901,12.688943 -11.331552,4.777148 -1.825473,-2.280651 1.322673,-4.4773 3.09883,-2.833948 0.8565,-2.374098 1.99948,-2.756168 4.370129,-1.802851 -0.550432,-1.716771 3.349725,-3.521735 3.862593,-0.140349 z"
       id="path3912"
       inkscape:connector-curvature="0"
       sodipodi:nodetypes="ccccc" />
    <path
       style="fill:#ffe400;fill-opacity:1;stroke:#000000;stroke-width:0.60000001999999997;stroke-linecap:butt;stroke-linejoin:miter;stroke-miterlimit:4;stroke-opacity:1;stroke-dasharray:none;display:inline"
       d="m 37.272352,48.554066 c -2.759361,11.842376 6.469009,12.688943 11.331551,4.777148 1.825473,-2.280651 -1.322673,-4.4773 -3.09883,-2.833948 -0.8565,-2.374098 -1.99948,-2.756168 -4.370129,-1.802851 0.203432,-0.634494 -0.201058,-1.281034 -0.81779,-1.673347 -1.05198,-0.66918 -2.721483,-0.598676 -3.044802,1.532998 z"
       id="path3912-8"
       inkscape:connector-curvature="0"
       sodipodi:nodetypes="ccccsc" />
  </g>
</svg>
